<svg width="256" height="256" viewBox="0 0 256 256" fill="none" xmlns="http://www.w3.org/2000/svg">
<g clip-path="url(#clip0_10450_3557)">
<g clip-path="url(#clip1_10450_3557)">
<g clip-path="url(#clip2_10450_3557)">
<g filter="url(#filter0_i_10450_3557)">
<path d="M153.025 174.582C158.05 192.15 160.801 211.225 160.801 231.102C160.801 239.586 160.299 247.893 159.342 256H64.5977V74.1143C98.4997 83.5511 127.234 111.812 144.221 150.237C147.666 157.967 150.609 166.099 153.025 174.582Z" fill="url(#paint0_linear_10450_3557)"/>
</g>
<path d="M256 55.2158V86.8143C240.353 88.1695 224.442 92.4864 208.676 99.7397C191.139 107.846 174.774 119.166 160.131 133.17C141.613 95.8746 112.903 67.7146 79.0488 55.2158H256Z" fill="url(#paint1_linear_10450_3557)"/>
<path d="M217.336 120.421C230.256 114.473 243.247 110.833 255.999 109.528V256H181.018C181.879 247.844 182.334 239.536 182.334 231.103C182.334 203.972 177.716 178.222 169.414 155.056C183.626 140.273 199.823 128.502 217.336 120.421Z" fill="url(#paint2_linear_10450_3557)"/>
<g filter="url(#filter1_d_10450_3557)">
<path d="M256 86.8143V109.528C243.247 110.833 230.256 114.472 217.336 120.421C199.823 128.502 183.626 140.273 169.414 155.056C177.716 178.221 182.334 203.972 182.334 231.103C182.334 239.536 181.879 247.843 181.018 256H159.342C160.299 247.893 160.801 239.586 160.801 231.103C160.801 211.225 158.05 192.151 153.025 174.582C150.609 166.099 147.666 157.967 144.221 150.237C127.234 111.812 98.4997 83.5515 64.5977 74.1146V55.2158H79.0485C112.903 67.7146 141.613 95.8746 160.131 133.17C174.773 119.166 191.138 107.846 208.675 99.7397C224.442 92.4864 240.352 88.1695 256 86.8143Z" fill="white"/>
</g>
<path fill-rule="evenodd" clip-rule="evenodd" d="M183.828 143.385C189.07 143.478 195.548 143.826 199.247 144.998L199.253 145C201.465 145.708 203.52 147.006 205.46 148.504C207.289 149.915 209.14 151.603 210.999 153.299C211.11 153.399 211.22 153.5 211.33 153.6C215.342 157.257 219.557 161.022 224.737 163.487C227.106 164.614 230.307 165.202 233.943 165.375C237.545 165.546 241.397 165.302 244.962 164.89C248.52 164.479 251.747 163.906 254.085 163.435C255.253 163.199 256.196 162.99 256.844 162.841C257.167 162.766 257.417 162.706 257.584 162.666L257.771 162.62L257.816 162.608L257.826 162.606C257.826 162.606 257.828 162.605 258.392 165.045C258.956 167.484 258.956 167.484 258.955 167.484L258.933 167.489L258.877 167.503L258.665 167.556C258.482 167.6 258.214 167.664 257.872 167.743C257.187 167.901 256.203 168.119 254.988 168.364C252.562 168.853 249.204 169.45 245.486 169.88C241.775 170.308 237.659 170.576 233.726 170.389C229.828 170.204 225.93 169.566 222.76 168.058C216.862 165.252 212.165 161.011 208.192 157.389C208.099 157.305 208.007 157.221 207.916 157.138C206.005 155.396 204.291 153.833 202.625 152.547C200.883 151.203 199.332 150.274 197.86 149.802C194.907 148.867 189.113 148.499 183.747 148.404C181.128 148.358 178.711 148.376 176.947 148.407C176.066 148.422 175.35 148.44 174.855 148.454C174.608 148.461 174.416 148.467 174.287 148.471L174.141 148.476L174.096 148.478L174.008 145.97C173.921 143.462 173.922 143.462 173.922 143.462L173.978 143.46L174.134 143.454C174.27 143.45 174.469 143.443 174.724 143.436C175.234 143.422 175.968 143.403 176.869 143.388C178.669 143.357 181.141 143.338 183.828 143.385Z" fill="white"/>
<path fill-rule="evenodd" clip-rule="evenodd" d="M223.813 167.379C223.813 167.378 223.814 167.378 226.142 167.957L228.47 168.535L228.463 168.566L228.441 168.666C228.421 168.755 228.391 168.891 228.352 169.07C228.274 169.429 228.159 169.963 228.015 170.66C227.725 172.053 227.314 174.093 226.832 176.671C225.868 181.828 224.621 189.129 223.49 197.694C221.224 214.854 219.445 236.956 221.297 257.014L216.534 257.497C214.63 236.871 216.464 214.323 218.75 197.005C219.895 188.331 221.159 180.935 222.136 175.705C222.625 173.09 223.043 171.014 223.339 169.59C223.488 168.878 223.605 168.328 223.686 167.955C223.727 167.768 223.758 167.625 223.78 167.529L223.804 167.418L223.813 167.379Z" fill="white"/>
<path fill-rule="evenodd" clip-rule="evenodd" d="M65.8672 86.7632C67.6377 87.6668 69.432 88.6205 71.1786 89.6495L72.9251 86.3617C71.1307 85.3075 69.2885 84.3287 67.4463 83.375L65.8911 86.7632H65.8672ZM75.8459 92.5087L75.8447 92.508C75.6526 92.3833 75.4607 92.2587 75.2691 92.1341L77.1113 88.9216C77.3081 89.0488 77.5052 89.1761 77.7025 89.3035C79.2559 90.3065 80.8197 91.3161 82.327 92.3851L80.3412 95.5224C78.8771 94.4762 77.3566 93.4893 75.8464 92.509L75.846 92.5088L75.846 92.5088L75.846 92.5088L75.8459 92.5088L75.8459 92.5088L75.8459 92.5087L75.8459 92.5087L75.8459 92.5087L75.8459 92.5087ZM87.2099 100.591C86.2453 99.8289 85.2806 99.0669 84.2901 98.3591L84.314 98.334L86.3955 95.2721C87.5276 96.0917 88.6172 96.9559 89.7069 97.8202L89.7069 97.8202L89.707 97.8203L89.707 97.8203L89.7071 97.8204L89.7072 97.8204L89.7072 97.8205L89.7073 97.8205L89.7074 97.8206L89.7074 97.8206L89.7075 97.8207L89.7075 97.8207L89.7076 97.8207L89.7077 97.8208L89.7077 97.8208L89.7078 97.8209L89.7079 97.8209C90.2528 98.2532 90.7978 98.6854 91.348 99.1121L89.1469 102.099C88.4963 101.607 87.8533 101.099 87.2103 100.591L87.2099 100.591ZM111.7 124.583C110.669 123.315 109.647 122.057 108.549 120.847V120.822L111.205 118.287C112.26 119.43 113.237 120.641 114.213 121.851L114.213 121.851L114.214 121.852L114.214 121.852L114.215 121.853L114.215 121.854L114.216 121.854L114.216 121.855L114.217 121.855L114.217 121.856L114.218 121.857L114.218 121.857C114.569 122.291 114.919 122.725 115.272 123.156L112.521 125.59C112.246 125.254 111.972 124.918 111.7 124.583ZM103.718 115.579L103.718 115.579L103.718 115.579L103.718 115.579L103.719 115.579L103.719 115.58L103.719 115.58L103.719 115.58L103.719 115.58L103.72 115.58L103.72 115.581L103.72 115.581L103.72 115.581L103.72 115.581L103.72 115.581C104.235 116.125 104.75 116.67 105.271 117.207L107.831 114.572C107.284 114.008 106.74 113.436 106.196 112.864L106.196 112.864C105.289 111.91 104.38 110.955 103.453 110.029L100.989 112.765C101.917 113.675 102.816 114.626 103.718 115.578L103.718 115.578L103.718 115.578L103.718 115.578L103.718 115.578L103.718 115.579L103.718 115.579L103.718 115.579L103.718 115.579L103.718 115.579L103.718 115.579L103.718 115.579L103.718 115.579ZM99.8878 106.566L97.5192 109.377L92.9256 105.286L95.2224 102.375L99.8878 106.566ZM130.727 146.422L127.617 148.279C127.933 148.884 128.263 149.487 128.593 150.091C129.262 151.316 129.935 152.548 130.512 153.825L133.694 152.094C133.053 150.677 132.312 149.326 131.571 147.974L131.57 147.973L131.57 147.971L131.569 147.97L131.569 147.969L131.568 147.968L131.568 147.967L131.567 147.966L131.566 147.965L131.566 147.964L131.565 147.963L131.565 147.962C131.284 147.45 131.003 146.938 130.727 146.422ZM121.947 138.643L124.913 136.534H124.937C125.723 137.753 126.475 139.007 127.224 140.256C127.57 140.833 127.915 141.409 128.263 141.981L125.2 143.963C124.768 143.263 124.346 142.562 123.926 141.863C123.276 140.784 122.629 139.709 121.947 138.643ZM118.405 127.223L115.582 129.557C115.964 130.083 116.353 130.602 116.742 131.121L116.742 131.122L116.743 131.122L116.743 131.123L116.744 131.123L116.744 131.124L116.744 131.124L116.745 131.125C117.597 132.262 118.447 133.396 119.219 134.602L122.138 132.393C121.427 131.291 120.644 130.237 119.861 129.183L119.861 129.183L119.861 129.183L119.861 129.183L119.861 129.183L119.861 129.183L119.861 129.183L119.86 129.183L119.86 129.183L119.86 129.183L119.86 129.183C119.377 128.533 118.895 127.884 118.429 127.223H118.405ZM140.465 179.425L143.887 178.321L143.911 178.346C144.033 178.769 144.158 179.191 144.283 179.613C144.766 181.243 145.248 182.87 145.609 184.545L142.14 185.499C141.738 183.68 141.205 181.899 140.674 180.124C140.604 179.891 140.535 179.658 140.465 179.425ZM140.275 167.38L136.926 168.735L139.031 174.658L142.428 173.429L140.275 167.38ZM132.69 158.369L135.92 156.762C136.515 158.012 137.049 159.315 137.582 160.616L137.582 160.616L137.582 160.617L137.583 160.618L137.583 160.619L137.584 160.62L137.584 160.621L137.584 160.622C137.864 161.305 138.144 161.987 138.432 162.66L135.13 164.141C134.868 163.519 134.616 162.894 134.364 162.269L134.364 162.268L134.363 162.267L134.363 162.267L134.363 162.266L134.362 162.265L134.362 162.264L134.362 162.263C133.833 160.951 133.305 159.643 132.69 158.369ZM147.259 219.105L150.824 218.854L150.37 212.429L146.781 212.78L147.259 219.105ZM145.419 201.536L148.96 200.934L149.797 207.334L146.232 207.811L145.419 201.536ZM146.807 189.591L143.313 190.444C143.72 191.948 143.983 193.479 144.248 195.017L144.248 195.018C144.341 195.559 144.434 196.101 144.534 196.643L148.051 195.94C147.923 195.28 147.808 194.617 147.692 193.955C147.438 192.501 147.184 191.046 146.807 189.616V189.591ZM150.178 253.591L146.589 253.214L147.116 246.89L150.68 247.166L150.178 253.591ZM147.405 241.869L150.993 242.045L151.185 235.595L147.596 235.52L147.405 241.869ZM151.233 230.524H147.644L147.5 224.2L151.089 224.049L151.233 230.524Z" fill="white"/>
</g>
<path opacity="0.3" d="M156.711 55.2158C169.87 84.0786 176.808 138.541 80.1504 230.902L156.711 55.2158Z" fill="#101828"/>
<path d="M160.299 76.5609C160.299 99.842 152.716 122.709 141.55 144.288C124.692 176.978 99.5907 206.816 80.1385 230.902C60.9501 206.908 35.4755 177.07 18.4631 143.989C7.49513 122.617 0 99.9341 0 76.5609C0 70.0735 0.813255 63.7701 2.24194 57.7197C13.5176 24.0863 44.1355 0 80.1385 0H80.1605C116.164 0 146.781 24.0863 158.057 57.7197C159.508 63.7701 160.299 70.0735 160.299 76.5609Z" fill="#FF4405"/>
<path d="M160.299 76.5609C160.299 99.842 152.716 122.709 141.55 144.288C124.692 176.978 99.5908 206.816 80.1387 230.902V0H80.1607C116.164 0 146.782 24.0863 158.057 57.7197C159.508 63.7701 160.299 70.0735 160.299 76.5609Z" fill="#E62E05"/>
<path d="M123.747 86.4531C123.747 111.667 104.229 132.095 80.1608 132.095C56.0928 132.095 36.5527 111.667 36.5527 86.4531C36.5527 61.2395 56.0928 40.834 80.1608 40.834C104.229 40.834 123.747 61.2625 123.747 86.4531Z" fill="white"/>
</g>
</g>
<defs>
<filter id="filter0_i_10450_3557" x="64.5977" y="74.1143" width="96.2031" height="181.886" filterUnits="userSpaceOnUse" color-interpolation-filters="sRGB">
<feFlood flood-opacity="0" result="BackgroundImageFix"/>
<feBlend mode="normal" in="SourceGraphic" in2="BackgroundImageFix" result="shape"/>
<feColorMatrix in="SourceAlpha" type="matrix" values="0 0 0 0 0 0 0 0 0 0 0 0 0 0 0 0 0 0 127 0" result="hardAlpha"/>
<feOffset dy="2"/>
<feComposite in2="hardAlpha" operator="arithmetic" k2="-1" k3="1"/>
<feColorMatrix type="matrix" values="0 0 0 0 0 0 0 0 0 0 0 0 0 0 0 0 0 0 0.2 0"/>
<feBlend mode="normal" in2="shape" result="effect1_innerShadow_10450_3557"/>
</filter>
<filter id="filter1_d_10450_3557" x="63.5977" y="55.2158" width="193.402" height="202.784" filterUnits="userSpaceOnUse" color-interpolation-filters="sRGB">
<feFlood flood-opacity="0" result="BackgroundImageFix"/>
<feColorMatrix in="SourceAlpha" type="matrix" values="0 0 0 0 0 0 0 0 0 0 0 0 0 0 0 0 0 0 127 0" result="hardAlpha"/>
<feOffset dy="1"/>
<feGaussianBlur stdDeviation="0.5"/>
<feColorMatrix type="matrix" values="0 0 0 0 0.0627451 0 0 0 0 0.0941176 0 0 0 0 0.156863 0 0 0 0.1 0"/>
<feBlend mode="normal" in2="BackgroundImageFix" result="effect1_dropShadow_10450_3557"/>
<feBlend mode="normal" in="SourceGraphic" in2="effect1_dropShadow_10450_3557" result="shape"/>
</filter>
<linearGradient id="paint0_linear_10450_3557" x1="188.801" y1="102.736" x2="56.0788" y2="261.152" gradientUnits="userSpaceOnUse">
<stop stop-color="#0058B7"/>
<stop offset="1" stop-color="#3696FF"/>
</linearGradient>
<linearGradient id="paint1_linear_10450_3557" x1="78.6921" y1="55.2769" x2="160.825" y2="190.575" gradientUnits="userSpaceOnUse">
<stop stop-color="#15D060"/>
<stop offset="1" stop-color="#F6E172"/>
</linearGradient>
<linearGradient id="paint2_linear_10450_3557" x1="169.414" y1="109.528" x2="297.741" y2="185.388" gradientUnits="userSpaceOnUse">
<stop stop-color="#FF9900"/>
<stop offset="1" stop-color="#FFD15C" stop-opacity="0.81"/>
</linearGradient>
<clipPath id="clip0_10450_3557">
<rect width="256" height="256" fill="white"/>
</clipPath>
<clipPath id="clip1_10450_3557">
<rect width="256" height="256" fill="white"/>
</clipPath>
<clipPath id="clip2_10450_3557">
<rect x="64.5977" y="55.2158" width="191.402" height="200.784" rx="8" fill="white"/>
</clipPath>
</defs>
</svg>
